<mxfile host="app.diagrams.net" modified="2023-07-27T03:07:47.448Z" agent="Mozilla/5.0 (Macintosh; Intel Mac OS X 10_15_7) AppleWebKit/537.36 (KHTML, like Gecko) Chrome/114.0.0.0 Safari/537.36" etag="ZrcK7LhZyIMX3MfyibZL" version="21.6.1" type="device" pages="2">
  <diagram name="CLB" id="z3zvnRkKatzVugUKT19j">
    <mxGraphModel dx="994" dy="636" grid="1" gridSize="10" guides="1" tooltips="1" connect="1" arrows="1" fold="1" page="1" pageScale="1" pageWidth="827" pageHeight="1169" math="0" shadow="0">
      <root>
        <mxCell id="0" />
        <mxCell id="1" parent="0" />
        <mxCell id="8yG9YOfpOXrwLzG073Nx-8" value="sa-east-1b" style="fillColor=none;strokeColor=#147EBA;dashed=1;verticalAlign=top;fontStyle=0;fontColor=#147EBA;whiteSpace=wrap;html=1;fontFamily=Comic Sans MS;" vertex="1" parent="1">
          <mxGeometry x="483" y="270" width="220" height="380" as="geometry" />
        </mxCell>
        <mxCell id="8yG9YOfpOXrwLzG073Nx-1" value="" style="rounded=1;arcSize=2;dashed=0;fillColor=none;gradientColor=none;strokeWidth=2;" vertex="1" parent="1">
          <mxGeometry x="90" y="190" width="660" height="520" as="geometry" />
        </mxCell>
        <mxCell id="8yG9YOfpOXrwLzG073Nx-3" value="" style="rounded=1;arcSize=2;dashed=0;fillColor=none;gradientColor=none;strokeWidth=2;" vertex="1" parent="1">
          <mxGeometry x="110" y="243" width="620" height="447" as="geometry" />
        </mxCell>
        <mxCell id="8yG9YOfpOXrwLzG073Nx-6" value="sa-east-1a" style="fillColor=none;strokeColor=#147EBA;dashed=1;verticalAlign=top;fontStyle=0;fontColor=#147EBA;whiteSpace=wrap;html=1;fontFamily=Comic Sans MS;" vertex="1" parent="1">
          <mxGeometry x="144" y="270" width="220" height="380" as="geometry" />
        </mxCell>
        <mxCell id="8yG9YOfpOXrwLzG073Nx-2" value="" style="dashed=0;html=1;shape=mxgraph.aws3.cloud;fillColor=#F58536;gradientColor=none;dashed=0;" vertex="1" parent="1">
          <mxGeometry x="110" y="174" width="52" height="36" as="geometry" />
        </mxCell>
        <mxCell id="8yG9YOfpOXrwLzG073Nx-4" value="" style="dashed=0;html=1;shape=mxgraph.aws3.virtual_private_cloud;fillColor=#F58536;gradientColor=none;dashed=0;" vertex="1" parent="1">
          <mxGeometry x="130" y="223" width="52" height="36" as="geometry" />
        </mxCell>
        <mxCell id="8yG9YOfpOXrwLzG073Nx-5" value="&lt;font face=&quot;Comic Sans MS&quot;&gt;Public subnet&lt;/font&gt;" style="points=[[0,0],[0.25,0],[0.5,0],[0.75,0],[1,0],[1,0.25],[1,0.5],[1,0.75],[1,1],[0.75,1],[0.5,1],[0.25,1],[0,1],[0,0.75],[0,0.5],[0,0.25]];outlineConnect=0;gradientColor=none;html=1;whiteSpace=wrap;fontSize=12;fontStyle=0;container=1;pointerEvents=0;collapsible=0;recursiveResize=0;shape=mxgraph.aws4.group;grIcon=mxgraph.aws4.group_security_group;grStroke=0;strokeColor=#248814;fillColor=#E9F3E6;verticalAlign=top;align=left;spacingLeft=30;fontColor=#248814;dashed=0;" vertex="1" parent="1">
          <mxGeometry x="154" y="310" width="200" height="120" as="geometry" />
        </mxCell>
        <mxCell id="8yG9YOfpOXrwLzG073Nx-24" value="" style="sketch=0;outlineConnect=0;fontColor=#232F3E;gradientColor=none;fillColor=#4D27AA;strokeColor=none;dashed=0;verticalLabelPosition=bottom;verticalAlign=top;align=center;html=1;fontSize=12;fontStyle=0;aspect=fixed;pointerEvents=1;shape=mxgraph.aws4.nat_gateway;" vertex="1" parent="8yG9YOfpOXrwLzG073Nx-5">
          <mxGeometry x="73" y="48" width="48" height="48" as="geometry" />
        </mxCell>
        <mxCell id="8yG9YOfpOXrwLzG073Nx-7" value="&lt;font face=&quot;Comic Sans MS&quot;&gt;Public subnet&lt;/font&gt;" style="points=[[0,0],[0.25,0],[0.5,0],[0.75,0],[1,0],[1,0.25],[1,0.5],[1,0.75],[1,1],[0.75,1],[0.5,1],[0.25,1],[0,1],[0,0.75],[0,0.5],[0,0.25]];outlineConnect=0;gradientColor=none;html=1;whiteSpace=wrap;fontSize=12;fontStyle=0;container=1;pointerEvents=0;collapsible=0;recursiveResize=0;shape=mxgraph.aws4.group;grIcon=mxgraph.aws4.group_security_group;grStroke=0;strokeColor=#248814;fillColor=#E9F3E6;verticalAlign=top;align=left;spacingLeft=30;fontColor=#248814;dashed=0;" vertex="1" parent="1">
          <mxGeometry x="493" y="310" width="200" height="120" as="geometry" />
        </mxCell>
        <mxCell id="8yG9YOfpOXrwLzG073Nx-25" value="" style="sketch=0;outlineConnect=0;fontColor=#232F3E;gradientColor=none;fillColor=#4D27AA;strokeColor=none;dashed=0;verticalLabelPosition=bottom;verticalAlign=top;align=center;html=1;fontSize=12;fontStyle=0;aspect=fixed;pointerEvents=1;shape=mxgraph.aws4.nat_gateway;" vertex="1" parent="8yG9YOfpOXrwLzG073Nx-7">
          <mxGeometry x="77" y="48" width="48" height="48" as="geometry" />
        </mxCell>
        <mxCell id="8yG9YOfpOXrwLzG073Nx-9" value="&lt;font face=&quot;Comic Sans MS&quot;&gt;Private subnet&lt;/font&gt;" style="points=[[0,0],[0.25,0],[0.5,0],[0.75,0],[1,0],[1,0.25],[1,0.5],[1,0.75],[1,1],[0.75,1],[0.5,1],[0.25,1],[0,1],[0,0.75],[0,0.5],[0,0.25]];outlineConnect=0;gradientColor=none;html=1;whiteSpace=wrap;fontSize=12;fontStyle=0;container=1;pointerEvents=0;collapsible=0;recursiveResize=0;shape=mxgraph.aws4.group;grIcon=mxgraph.aws4.group_security_group;grStroke=0;strokeColor=#147EBA;fillColor=#E6F2F8;verticalAlign=top;align=left;spacingLeft=30;fontColor=#147EBA;dashed=0;" vertex="1" parent="1">
          <mxGeometry x="154" y="440" width="196" height="200" as="geometry" />
        </mxCell>
        <mxCell id="8yG9YOfpOXrwLzG073Nx-14" value="" style="sketch=0;points=[[0,0,0],[0.25,0,0],[0.5,0,0],[0.75,0,0],[1,0,0],[0,1,0],[0.25,1,0],[0.5,1,0],[0.75,1,0],[1,1,0],[0,0.25,0],[0,0.5,0],[0,0.75,0],[1,0.25,0],[1,0.5,0],[1,0.75,0]];outlineConnect=0;fontColor=#232F3E;gradientColor=#4D72F3;gradientDirection=north;fillColor=#3334B9;strokeColor=#ffffff;dashed=0;verticalLabelPosition=bottom;verticalAlign=top;align=center;html=1;fontSize=12;fontStyle=0;aspect=fixed;shape=mxgraph.aws4.resourceIcon;resIcon=mxgraph.aws4.rds;" vertex="1" parent="8yG9YOfpOXrwLzG073Nx-9">
          <mxGeometry x="74" y="150" width="40" height="40" as="geometry" />
        </mxCell>
        <mxCell id="8yG9YOfpOXrwLzG073Nx-10" value="&lt;font face=&quot;Comic Sans MS&quot;&gt;Private subnet&lt;/font&gt;" style="points=[[0,0],[0.25,0],[0.5,0],[0.75,0],[1,0],[1,0.25],[1,0.5],[1,0.75],[1,1],[0.75,1],[0.5,1],[0.25,1],[0,1],[0,0.75],[0,0.5],[0,0.25]];outlineConnect=0;gradientColor=none;html=1;whiteSpace=wrap;fontSize=12;fontStyle=0;container=1;pointerEvents=0;collapsible=0;recursiveResize=0;shape=mxgraph.aws4.group;grIcon=mxgraph.aws4.group_security_group;grStroke=0;strokeColor=#147EBA;fillColor=#E6F2F8;verticalAlign=top;align=left;spacingLeft=30;fontColor=#147EBA;dashed=0;" vertex="1" parent="1">
          <mxGeometry x="494" y="439" width="200" height="201" as="geometry" />
        </mxCell>
        <mxCell id="8yG9YOfpOXrwLzG073Nx-15" value="" style="sketch=0;points=[[0,0,0],[0.25,0,0],[0.5,0,0],[0.75,0,0],[1,0,0],[0,1,0],[0.25,1,0],[0.5,1,0],[0.75,1,0],[1,1,0],[0,0.25,0],[0,0.5,0],[0,0.75,0],[1,0.25,0],[1,0.5,0],[1,0.75,0]];outlineConnect=0;fontColor=#232F3E;gradientColor=#4D72F3;gradientDirection=north;fillColor=#3334B9;strokeColor=#ffffff;dashed=0;verticalLabelPosition=bottom;verticalAlign=top;align=center;html=1;fontSize=12;fontStyle=0;aspect=fixed;shape=mxgraph.aws4.resourceIcon;resIcon=mxgraph.aws4.rds;" vertex="1" parent="8yG9YOfpOXrwLzG073Nx-10">
          <mxGeometry x="80" y="151" width="40" height="40" as="geometry" />
        </mxCell>
        <mxCell id="8yG9YOfpOXrwLzG073Nx-11" value="&lt;font color=&quot;#330000&quot; style=&quot;font-size: 10px;&quot;&gt;EKS Private Node Group&lt;/font&gt;" style="outlineConnect=0;gradientColor=none;html=1;whiteSpace=wrap;fontSize=12;fontStyle=0;strokeColor=#FF3333;fillColor=none;verticalAlign=top;align=center;fontColor=#858B94;dashed=1;spacingTop=3;fontFamily=Comic Sans MS;strokeWidth=2;" vertex="1" parent="1">
          <mxGeometry x="149" y="475" width="549" height="108" as="geometry" />
        </mxCell>
        <mxCell id="8yG9YOfpOXrwLzG073Nx-12" value="&lt;font style=&quot;font-size: 10px;&quot; face=&quot;Comic Sans MS&quot;&gt;EC2 Worker Node&lt;/font&gt;" style="points=[[0,0],[0.25,0],[0.5,0],[0.75,0],[1,0],[1,0.25],[1,0.5],[1,0.75],[1,1],[0.75,1],[0.5,1],[0.25,1],[0,1],[0,0.75],[0,0.5],[0,0.25]];outlineConnect=0;gradientColor=none;html=1;whiteSpace=wrap;fontSize=12;fontStyle=0;container=1;pointerEvents=0;collapsible=0;recursiveResize=0;shape=mxgraph.aws4.group;grIcon=mxgraph.aws4.group_ec2_instance_contents;strokeColor=#D86613;fillColor=none;verticalAlign=top;align=left;spacingLeft=30;fontColor=#D86613;dashed=0;" vertex="1" parent="1">
          <mxGeometry x="180" y="484" width="136" height="87" as="geometry" />
        </mxCell>
        <mxCell id="8yG9YOfpOXrwLzG073Nx-16" value="" style="sketch=0;html=1;dashed=0;whitespace=wrap;fillColor=#2875E2;strokeColor=#ffffff;points=[[0.005,0.63,0],[0.1,0.2,0],[0.9,0.2,0],[0.5,0,0],[0.995,0.63,0],[0.72,0.99,0],[0.5,1,0],[0.28,0.99,0]];verticalLabelPosition=bottom;align=center;verticalAlign=top;shape=mxgraph.kubernetes.icon;prIcon=pod" vertex="1" parent="8yG9YOfpOXrwLzG073Nx-12">
          <mxGeometry x="46" y="31.5" width="42" height="44" as="geometry" />
        </mxCell>
        <mxCell id="8yG9YOfpOXrwLzG073Nx-13" value="&lt;font style=&quot;font-size: 10px;&quot; face=&quot;Comic Sans MS&quot;&gt;EC2 Worker Node&lt;/font&gt;" style="points=[[0,0],[0.25,0],[0.5,0],[0.75,0],[1,0],[1,0.25],[1,0.5],[1,0.75],[1,1],[0.75,1],[0.5,1],[0.25,1],[0,1],[0,0.75],[0,0.5],[0,0.25]];outlineConnect=0;gradientColor=none;html=1;whiteSpace=wrap;fontSize=12;fontStyle=0;container=1;pointerEvents=0;collapsible=0;recursiveResize=0;shape=mxgraph.aws4.group;grIcon=mxgraph.aws4.group_ec2_instance_contents;strokeColor=#D86613;fillColor=none;verticalAlign=top;align=left;spacingLeft=30;fontColor=#D86613;dashed=0;" vertex="1" parent="1">
          <mxGeometry x="526" y="484" width="136" height="87" as="geometry" />
        </mxCell>
        <mxCell id="8yG9YOfpOXrwLzG073Nx-17" value="" style="sketch=0;html=1;dashed=0;whitespace=wrap;fillColor=#2875E2;strokeColor=#ffffff;points=[[0.005,0.63,0],[0.1,0.2,0],[0.9,0.2,0],[0.5,0,0],[0.995,0.63,0],[0.72,0.99,0],[0.5,1,0],[0.28,0.99,0]];verticalLabelPosition=bottom;align=center;verticalAlign=top;shape=mxgraph.kubernetes.icon;prIcon=pod" vertex="1" parent="8yG9YOfpOXrwLzG073Nx-13">
          <mxGeometry x="54" y="33.5" width="42" height="44" as="geometry" />
        </mxCell>
        <mxCell id="8yG9YOfpOXrwLzG073Nx-18" value="&lt;font face=&quot;Comic Sans MS&quot; style=&quot;font-size: 10px;&quot;&gt;RDS - External Name Service&lt;/font&gt;" style="sketch=0;outlineConnect=0;fontColor=#232F3E;gradientColor=none;fillColor=#D45B07;strokeColor=none;dashed=0;verticalLabelPosition=bottom;verticalAlign=top;align=center;html=1;fontSize=10;fontStyle=0;aspect=fixed;pointerEvents=1;shape=mxgraph.aws4.ecs_service_connect;" vertex="1" parent="1">
          <mxGeometry x="399.5" y="558" width="48" height="44" as="geometry" />
        </mxCell>
        <mxCell id="8yG9YOfpOXrwLzG073Nx-19" style="rounded=0;orthogonalLoop=1;jettySize=auto;html=1;endArrow=blockThin;endFill=1;fillColor=#f8cecc;strokeColor=#b85450;" edge="1" parent="1" source="8yG9YOfpOXrwLzG073Nx-16" target="8yG9YOfpOXrwLzG073Nx-18">
          <mxGeometry relative="1" as="geometry" />
        </mxCell>
        <mxCell id="8yG9YOfpOXrwLzG073Nx-20" style="rounded=0;orthogonalLoop=1;jettySize=auto;html=1;fillColor=#f8cecc;strokeColor=#b85450;endArrow=blockThin;endFill=1;" edge="1" parent="1" source="8yG9YOfpOXrwLzG073Nx-17" target="8yG9YOfpOXrwLzG073Nx-18">
          <mxGeometry relative="1" as="geometry" />
        </mxCell>
        <mxCell id="8yG9YOfpOXrwLzG073Nx-22" style="rounded=0;orthogonalLoop=1;jettySize=auto;html=1;entryX=0.9;entryY=0.2;entryDx=0;entryDy=0;entryPerimeter=0;endArrow=blockThin;endFill=1;" edge="1" parent="1" source="8yG9YOfpOXrwLzG073Nx-21" target="8yG9YOfpOXrwLzG073Nx-16">
          <mxGeometry relative="1" as="geometry" />
        </mxCell>
        <mxCell id="8yG9YOfpOXrwLzG073Nx-23" style="rounded=0;orthogonalLoop=1;jettySize=auto;html=1;entryX=0.1;entryY=0.2;entryDx=0;entryDy=0;entryPerimeter=0;endArrow=blockThin;endFill=1;" edge="1" parent="1" source="8yG9YOfpOXrwLzG073Nx-21" target="8yG9YOfpOXrwLzG073Nx-17">
          <mxGeometry relative="1" as="geometry" />
        </mxCell>
        <mxCell id="8yG9YOfpOXrwLzG073Nx-21" value="" style="sketch=0;outlineConnect=0;fontColor=#232F3E;gradientColor=none;fillColor=#4D27AA;strokeColor=none;dashed=0;verticalLabelPosition=bottom;verticalAlign=top;align=center;html=1;fontSize=12;fontStyle=0;aspect=fixed;pointerEvents=1;shape=mxgraph.aws4.classic_load_balancer;" vertex="1" parent="1">
          <mxGeometry x="381" y="280" width="78" height="78" as="geometry" />
        </mxCell>
        <mxCell id="8yG9YOfpOXrwLzG073Nx-27" style="edgeStyle=orthogonalEdgeStyle;rounded=0;orthogonalLoop=1;jettySize=auto;html=1;" edge="1" parent="1" source="8yG9YOfpOXrwLzG073Nx-24" target="8yG9YOfpOXrwLzG073Nx-9">
          <mxGeometry relative="1" as="geometry" />
        </mxCell>
        <mxCell id="8yG9YOfpOXrwLzG073Nx-28" style="edgeStyle=orthogonalEdgeStyle;rounded=0;orthogonalLoop=1;jettySize=auto;html=1;" edge="1" parent="1" source="8yG9YOfpOXrwLzG073Nx-25" target="8yG9YOfpOXrwLzG073Nx-10">
          <mxGeometry relative="1" as="geometry" />
        </mxCell>
        <mxCell id="8yG9YOfpOXrwLzG073Nx-30" style="rounded=0;orthogonalLoop=1;jettySize=auto;html=1;startArrow=blockThin;startFill=1;endArrow=blockThin;endFill=1;" edge="1" parent="1" source="8yG9YOfpOXrwLzG073Nx-29" target="8yG9YOfpOXrwLzG073Nx-25">
          <mxGeometry relative="1" as="geometry" />
        </mxCell>
        <mxCell id="8yG9YOfpOXrwLzG073Nx-31" style="rounded=0;orthogonalLoop=1;jettySize=auto;html=1;startArrow=blockThin;startFill=1;endArrow=blockThin;endFill=1;" edge="1" parent="1" source="8yG9YOfpOXrwLzG073Nx-29" target="8yG9YOfpOXrwLzG073Nx-24">
          <mxGeometry relative="1" as="geometry" />
        </mxCell>
        <mxCell id="8yG9YOfpOXrwLzG073Nx-29" value="" style="sketch=0;points=[[0,0,0],[0.25,0,0],[0.5,0,0],[0.75,0,0],[1,0,0],[0,1,0],[0.25,1,0],[0.5,1,0],[0.75,1,0],[1,1,0],[0,0.25,0],[0,0.5,0],[0,0.75,0],[1,0.25,0],[1,0.5,0],[1,0.75,0]];outlineConnect=0;fontColor=#232F3E;gradientColor=#F78E04;gradientDirection=north;fillColor=#D05C17;strokeColor=#ffffff;dashed=0;verticalLabelPosition=bottom;verticalAlign=top;align=center;html=1;fontSize=12;fontStyle=0;aspect=fixed;shape=mxgraph.aws4.resourceIcon;resIcon=mxgraph.aws4.eks;" vertex="1" parent="1">
          <mxGeometry x="397.5" y="196" width="40" height="40" as="geometry" />
        </mxCell>
      </root>
    </mxGraphModel>
  </diagram>
  <diagram id="6FdGt_CgPFTtVV8vJ9KH" name="NLB">
    <mxGraphModel dx="1242" dy="795" grid="1" gridSize="10" guides="1" tooltips="1" connect="1" arrows="1" fold="1" page="1" pageScale="1" pageWidth="827" pageHeight="1169" math="0" shadow="0">
      <root>
        <mxCell id="0" />
        <mxCell id="1" parent="0" />
        <mxCell id="nGOk4OxWwtGXm9g27qoZ-1" value="sa-east-1b" style="fillColor=none;strokeColor=#147EBA;dashed=1;verticalAlign=top;fontStyle=0;fontColor=#147EBA;whiteSpace=wrap;html=1;fontFamily=Comic Sans MS;" vertex="1" parent="1">
          <mxGeometry x="483" y="270" width="220" height="380" as="geometry" />
        </mxCell>
        <mxCell id="nGOk4OxWwtGXm9g27qoZ-2" value="" style="rounded=1;arcSize=2;dashed=0;fillColor=none;gradientColor=none;strokeWidth=2;" vertex="1" parent="1">
          <mxGeometry x="90" y="190" width="660" height="520" as="geometry" />
        </mxCell>
        <mxCell id="nGOk4OxWwtGXm9g27qoZ-3" value="" style="rounded=1;arcSize=2;dashed=0;fillColor=none;gradientColor=none;strokeWidth=2;" vertex="1" parent="1">
          <mxGeometry x="110" y="243" width="620" height="447" as="geometry" />
        </mxCell>
        <mxCell id="nGOk4OxWwtGXm9g27qoZ-4" value="sa-east-1a" style="fillColor=none;strokeColor=#147EBA;dashed=1;verticalAlign=top;fontStyle=0;fontColor=#147EBA;whiteSpace=wrap;html=1;fontFamily=Comic Sans MS;" vertex="1" parent="1">
          <mxGeometry x="144" y="270" width="220" height="380" as="geometry" />
        </mxCell>
        <mxCell id="nGOk4OxWwtGXm9g27qoZ-5" value="" style="dashed=0;html=1;shape=mxgraph.aws3.cloud;fillColor=#F58536;gradientColor=none;dashed=0;" vertex="1" parent="1">
          <mxGeometry x="110" y="174" width="52" height="36" as="geometry" />
        </mxCell>
        <mxCell id="nGOk4OxWwtGXm9g27qoZ-6" value="" style="dashed=0;html=1;shape=mxgraph.aws3.virtual_private_cloud;fillColor=#F58536;gradientColor=none;dashed=0;" vertex="1" parent="1">
          <mxGeometry x="130" y="223" width="52" height="36" as="geometry" />
        </mxCell>
        <mxCell id="nGOk4OxWwtGXm9g27qoZ-7" value="&lt;font face=&quot;Comic Sans MS&quot;&gt;Public subnet&lt;/font&gt;" style="points=[[0,0],[0.25,0],[0.5,0],[0.75,0],[1,0],[1,0.25],[1,0.5],[1,0.75],[1,1],[0.75,1],[0.5,1],[0.25,1],[0,1],[0,0.75],[0,0.5],[0,0.25]];outlineConnect=0;gradientColor=none;html=1;whiteSpace=wrap;fontSize=12;fontStyle=0;container=1;pointerEvents=0;collapsible=0;recursiveResize=0;shape=mxgraph.aws4.group;grIcon=mxgraph.aws4.group_security_group;grStroke=0;strokeColor=#248814;fillColor=#E9F3E6;verticalAlign=top;align=left;spacingLeft=30;fontColor=#248814;dashed=0;" vertex="1" parent="1">
          <mxGeometry x="154" y="310" width="200" height="120" as="geometry" />
        </mxCell>
        <mxCell id="nGOk4OxWwtGXm9g27qoZ-8" value="" style="sketch=0;outlineConnect=0;fontColor=#232F3E;gradientColor=none;fillColor=#4D27AA;strokeColor=none;dashed=0;verticalLabelPosition=bottom;verticalAlign=top;align=center;html=1;fontSize=12;fontStyle=0;aspect=fixed;pointerEvents=1;shape=mxgraph.aws4.nat_gateway;" vertex="1" parent="nGOk4OxWwtGXm9g27qoZ-7">
          <mxGeometry x="73" y="48" width="48" height="48" as="geometry" />
        </mxCell>
        <mxCell id="nGOk4OxWwtGXm9g27qoZ-9" value="&lt;font face=&quot;Comic Sans MS&quot;&gt;Public subnet&lt;/font&gt;" style="points=[[0,0],[0.25,0],[0.5,0],[0.75,0],[1,0],[1,0.25],[1,0.5],[1,0.75],[1,1],[0.75,1],[0.5,1],[0.25,1],[0,1],[0,0.75],[0,0.5],[0,0.25]];outlineConnect=0;gradientColor=none;html=1;whiteSpace=wrap;fontSize=12;fontStyle=0;container=1;pointerEvents=0;collapsible=0;recursiveResize=0;shape=mxgraph.aws4.group;grIcon=mxgraph.aws4.group_security_group;grStroke=0;strokeColor=#248814;fillColor=#E9F3E6;verticalAlign=top;align=left;spacingLeft=30;fontColor=#248814;dashed=0;" vertex="1" parent="1">
          <mxGeometry x="493" y="310" width="200" height="120" as="geometry" />
        </mxCell>
        <mxCell id="nGOk4OxWwtGXm9g27qoZ-10" value="" style="sketch=0;outlineConnect=0;fontColor=#232F3E;gradientColor=none;fillColor=#4D27AA;strokeColor=none;dashed=0;verticalLabelPosition=bottom;verticalAlign=top;align=center;html=1;fontSize=12;fontStyle=0;aspect=fixed;pointerEvents=1;shape=mxgraph.aws4.nat_gateway;" vertex="1" parent="nGOk4OxWwtGXm9g27qoZ-9">
          <mxGeometry x="77" y="48" width="48" height="48" as="geometry" />
        </mxCell>
        <mxCell id="nGOk4OxWwtGXm9g27qoZ-11" value="&lt;font face=&quot;Comic Sans MS&quot;&gt;Private subnet&lt;/font&gt;" style="points=[[0,0],[0.25,0],[0.5,0],[0.75,0],[1,0],[1,0.25],[1,0.5],[1,0.75],[1,1],[0.75,1],[0.5,1],[0.25,1],[0,1],[0,0.75],[0,0.5],[0,0.25]];outlineConnect=0;gradientColor=none;html=1;whiteSpace=wrap;fontSize=12;fontStyle=0;container=1;pointerEvents=0;collapsible=0;recursiveResize=0;shape=mxgraph.aws4.group;grIcon=mxgraph.aws4.group_security_group;grStroke=0;strokeColor=#147EBA;fillColor=#E6F2F8;verticalAlign=top;align=left;spacingLeft=30;fontColor=#147EBA;dashed=0;" vertex="1" parent="1">
          <mxGeometry x="154" y="440" width="196" height="200" as="geometry" />
        </mxCell>
        <mxCell id="nGOk4OxWwtGXm9g27qoZ-12" value="" style="sketch=0;points=[[0,0,0],[0.25,0,0],[0.5,0,0],[0.75,0,0],[1,0,0],[0,1,0],[0.25,1,0],[0.5,1,0],[0.75,1,0],[1,1,0],[0,0.25,0],[0,0.5,0],[0,0.75,0],[1,0.25,0],[1,0.5,0],[1,0.75,0]];outlineConnect=0;fontColor=#232F3E;gradientColor=#4D72F3;gradientDirection=north;fillColor=#3334B9;strokeColor=#ffffff;dashed=0;verticalLabelPosition=bottom;verticalAlign=top;align=center;html=1;fontSize=12;fontStyle=0;aspect=fixed;shape=mxgraph.aws4.resourceIcon;resIcon=mxgraph.aws4.rds;" vertex="1" parent="nGOk4OxWwtGXm9g27qoZ-11">
          <mxGeometry x="74" y="150" width="40" height="40" as="geometry" />
        </mxCell>
        <mxCell id="nGOk4OxWwtGXm9g27qoZ-13" value="&lt;font face=&quot;Comic Sans MS&quot;&gt;Private subnet&lt;/font&gt;" style="points=[[0,0],[0.25,0],[0.5,0],[0.75,0],[1,0],[1,0.25],[1,0.5],[1,0.75],[1,1],[0.75,1],[0.5,1],[0.25,1],[0,1],[0,0.75],[0,0.5],[0,0.25]];outlineConnect=0;gradientColor=none;html=1;whiteSpace=wrap;fontSize=12;fontStyle=0;container=1;pointerEvents=0;collapsible=0;recursiveResize=0;shape=mxgraph.aws4.group;grIcon=mxgraph.aws4.group_security_group;grStroke=0;strokeColor=#147EBA;fillColor=#E6F2F8;verticalAlign=top;align=left;spacingLeft=30;fontColor=#147EBA;dashed=0;" vertex="1" parent="1">
          <mxGeometry x="494" y="439" width="200" height="201" as="geometry" />
        </mxCell>
        <mxCell id="nGOk4OxWwtGXm9g27qoZ-14" value="" style="sketch=0;points=[[0,0,0],[0.25,0,0],[0.5,0,0],[0.75,0,0],[1,0,0],[0,1,0],[0.25,1,0],[0.5,1,0],[0.75,1,0],[1,1,0],[0,0.25,0],[0,0.5,0],[0,0.75,0],[1,0.25,0],[1,0.5,0],[1,0.75,0]];outlineConnect=0;fontColor=#232F3E;gradientColor=#4D72F3;gradientDirection=north;fillColor=#3334B9;strokeColor=#ffffff;dashed=0;verticalLabelPosition=bottom;verticalAlign=top;align=center;html=1;fontSize=12;fontStyle=0;aspect=fixed;shape=mxgraph.aws4.resourceIcon;resIcon=mxgraph.aws4.rds;" vertex="1" parent="nGOk4OxWwtGXm9g27qoZ-13">
          <mxGeometry x="80" y="151" width="40" height="40" as="geometry" />
        </mxCell>
        <mxCell id="nGOk4OxWwtGXm9g27qoZ-15" value="&lt;font color=&quot;#330000&quot; style=&quot;font-size: 10px;&quot;&gt;EKS Private Node Group&lt;/font&gt;" style="outlineConnect=0;gradientColor=none;html=1;whiteSpace=wrap;fontSize=12;fontStyle=0;strokeColor=#FF3333;fillColor=none;verticalAlign=top;align=center;fontColor=#858B94;dashed=1;spacingTop=3;fontFamily=Comic Sans MS;strokeWidth=2;" vertex="1" parent="1">
          <mxGeometry x="149" y="475" width="549" height="108" as="geometry" />
        </mxCell>
        <mxCell id="nGOk4OxWwtGXm9g27qoZ-16" value="&lt;font style=&quot;font-size: 10px;&quot; face=&quot;Comic Sans MS&quot;&gt;EC2 Worker Node&lt;/font&gt;" style="points=[[0,0],[0.25,0],[0.5,0],[0.75,0],[1,0],[1,0.25],[1,0.5],[1,0.75],[1,1],[0.75,1],[0.5,1],[0.25,1],[0,1],[0,0.75],[0,0.5],[0,0.25]];outlineConnect=0;gradientColor=none;html=1;whiteSpace=wrap;fontSize=12;fontStyle=0;container=1;pointerEvents=0;collapsible=0;recursiveResize=0;shape=mxgraph.aws4.group;grIcon=mxgraph.aws4.group_ec2_instance_contents;strokeColor=#D86613;fillColor=none;verticalAlign=top;align=left;spacingLeft=30;fontColor=#D86613;dashed=0;" vertex="1" parent="1">
          <mxGeometry x="180" y="484" width="136" height="87" as="geometry" />
        </mxCell>
        <mxCell id="nGOk4OxWwtGXm9g27qoZ-17" value="" style="sketch=0;html=1;dashed=0;whitespace=wrap;fillColor=#2875E2;strokeColor=#ffffff;points=[[0.005,0.63,0],[0.1,0.2,0],[0.9,0.2,0],[0.5,0,0],[0.995,0.63,0],[0.72,0.99,0],[0.5,1,0],[0.28,0.99,0]];verticalLabelPosition=bottom;align=center;verticalAlign=top;shape=mxgraph.kubernetes.icon;prIcon=pod" vertex="1" parent="nGOk4OxWwtGXm9g27qoZ-16">
          <mxGeometry x="46" y="31.5" width="42" height="44" as="geometry" />
        </mxCell>
        <mxCell id="nGOk4OxWwtGXm9g27qoZ-18" value="&lt;font style=&quot;font-size: 10px;&quot; face=&quot;Comic Sans MS&quot;&gt;EC2 Worker Node&lt;/font&gt;" style="points=[[0,0],[0.25,0],[0.5,0],[0.75,0],[1,0],[1,0.25],[1,0.5],[1,0.75],[1,1],[0.75,1],[0.5,1],[0.25,1],[0,1],[0,0.75],[0,0.5],[0,0.25]];outlineConnect=0;gradientColor=none;html=1;whiteSpace=wrap;fontSize=12;fontStyle=0;container=1;pointerEvents=0;collapsible=0;recursiveResize=0;shape=mxgraph.aws4.group;grIcon=mxgraph.aws4.group_ec2_instance_contents;strokeColor=#D86613;fillColor=none;verticalAlign=top;align=left;spacingLeft=30;fontColor=#D86613;dashed=0;" vertex="1" parent="1">
          <mxGeometry x="526" y="484" width="136" height="87" as="geometry" />
        </mxCell>
        <mxCell id="nGOk4OxWwtGXm9g27qoZ-19" value="" style="sketch=0;html=1;dashed=0;whitespace=wrap;fillColor=#2875E2;strokeColor=#ffffff;points=[[0.005,0.63,0],[0.1,0.2,0],[0.9,0.2,0],[0.5,0,0],[0.995,0.63,0],[0.72,0.99,0],[0.5,1,0],[0.28,0.99,0]];verticalLabelPosition=bottom;align=center;verticalAlign=top;shape=mxgraph.kubernetes.icon;prIcon=pod" vertex="1" parent="nGOk4OxWwtGXm9g27qoZ-18">
          <mxGeometry x="54" y="33.5" width="42" height="44" as="geometry" />
        </mxCell>
        <mxCell id="nGOk4OxWwtGXm9g27qoZ-20" value="&lt;font face=&quot;Comic Sans MS&quot; style=&quot;font-size: 10px;&quot;&gt;RDS - External Name Service&lt;/font&gt;" style="sketch=0;outlineConnect=0;fontColor=#232F3E;gradientColor=none;fillColor=#D45B07;strokeColor=none;dashed=0;verticalLabelPosition=bottom;verticalAlign=top;align=center;html=1;fontSize=10;fontStyle=0;aspect=fixed;pointerEvents=1;shape=mxgraph.aws4.ecs_service_connect;" vertex="1" parent="1">
          <mxGeometry x="399.5" y="558" width="48" height="44" as="geometry" />
        </mxCell>
        <mxCell id="nGOk4OxWwtGXm9g27qoZ-21" style="rounded=0;orthogonalLoop=1;jettySize=auto;html=1;endArrow=blockThin;endFill=1;fillColor=#f8cecc;strokeColor=#b85450;" edge="1" parent="1" source="nGOk4OxWwtGXm9g27qoZ-17" target="nGOk4OxWwtGXm9g27qoZ-20">
          <mxGeometry relative="1" as="geometry" />
        </mxCell>
        <mxCell id="nGOk4OxWwtGXm9g27qoZ-22" style="rounded=0;orthogonalLoop=1;jettySize=auto;html=1;fillColor=#f8cecc;strokeColor=#b85450;endArrow=blockThin;endFill=1;" edge="1" parent="1" source="nGOk4OxWwtGXm9g27qoZ-19" target="nGOk4OxWwtGXm9g27qoZ-20">
          <mxGeometry relative="1" as="geometry" />
        </mxCell>
        <mxCell id="nGOk4OxWwtGXm9g27qoZ-23" style="rounded=0;orthogonalLoop=1;jettySize=auto;html=1;entryX=0.9;entryY=0.2;entryDx=0;entryDy=0;entryPerimeter=0;endArrow=blockThin;endFill=1;" edge="1" parent="1" target="nGOk4OxWwtGXm9g27qoZ-17">
          <mxGeometry relative="1" as="geometry">
            <mxPoint x="390.3280001975688" y="357.99911369679353" as="sourcePoint" />
          </mxGeometry>
        </mxCell>
        <mxCell id="nGOk4OxWwtGXm9g27qoZ-24" style="rounded=0;orthogonalLoop=1;jettySize=auto;html=1;entryX=0.1;entryY=0.2;entryDx=0;entryDy=0;entryPerimeter=0;endArrow=blockThin;endFill=1;" edge="1" parent="1" target="nGOk4OxWwtGXm9g27qoZ-19">
          <mxGeometry relative="1" as="geometry">
            <mxPoint x="450.8907596189749" y="357.99911369679353" as="sourcePoint" />
          </mxGeometry>
        </mxCell>
        <mxCell id="nGOk4OxWwtGXm9g27qoZ-26" style="edgeStyle=orthogonalEdgeStyle;rounded=0;orthogonalLoop=1;jettySize=auto;html=1;" edge="1" parent="1" source="nGOk4OxWwtGXm9g27qoZ-8" target="nGOk4OxWwtGXm9g27qoZ-11">
          <mxGeometry relative="1" as="geometry" />
        </mxCell>
        <mxCell id="nGOk4OxWwtGXm9g27qoZ-27" style="edgeStyle=orthogonalEdgeStyle;rounded=0;orthogonalLoop=1;jettySize=auto;html=1;" edge="1" parent="1" source="nGOk4OxWwtGXm9g27qoZ-10" target="nGOk4OxWwtGXm9g27qoZ-13">
          <mxGeometry relative="1" as="geometry" />
        </mxCell>
        <mxCell id="nGOk4OxWwtGXm9g27qoZ-28" style="rounded=0;orthogonalLoop=1;jettySize=auto;html=1;startArrow=blockThin;startFill=1;endArrow=blockThin;endFill=1;" edge="1" parent="1" source="nGOk4OxWwtGXm9g27qoZ-30" target="nGOk4OxWwtGXm9g27qoZ-10">
          <mxGeometry relative="1" as="geometry" />
        </mxCell>
        <mxCell id="nGOk4OxWwtGXm9g27qoZ-29" style="rounded=0;orthogonalLoop=1;jettySize=auto;html=1;startArrow=blockThin;startFill=1;endArrow=blockThin;endFill=1;" edge="1" parent="1" source="nGOk4OxWwtGXm9g27qoZ-30" target="nGOk4OxWwtGXm9g27qoZ-8">
          <mxGeometry relative="1" as="geometry" />
        </mxCell>
        <mxCell id="nGOk4OxWwtGXm9g27qoZ-30" value="" style="sketch=0;points=[[0,0,0],[0.25,0,0],[0.5,0,0],[0.75,0,0],[1,0,0],[0,1,0],[0.25,1,0],[0.5,1,0],[0.75,1,0],[1,1,0],[0,0.25,0],[0,0.5,0],[0,0.75,0],[1,0.25,0],[1,0.5,0],[1,0.75,0]];outlineConnect=0;fontColor=#232F3E;gradientColor=#F78E04;gradientDirection=north;fillColor=#D05C17;strokeColor=#ffffff;dashed=0;verticalLabelPosition=bottom;verticalAlign=top;align=center;html=1;fontSize=12;fontStyle=0;aspect=fixed;shape=mxgraph.aws4.resourceIcon;resIcon=mxgraph.aws4.eks;" vertex="1" parent="1">
          <mxGeometry x="397.5" y="196" width="40" height="40" as="geometry" />
        </mxCell>
        <mxCell id="nGOk4OxWwtGXm9g27qoZ-31" value="" style="sketch=0;outlineConnect=0;fontColor=#232F3E;gradientColor=none;fillColor=#4D27AA;strokeColor=none;dashed=0;verticalLabelPosition=bottom;verticalAlign=top;align=center;html=1;fontSize=12;fontStyle=0;aspect=fixed;pointerEvents=1;shape=mxgraph.aws4.network_load_balancer;" vertex="1" parent="1">
          <mxGeometry x="378.5" y="290" width="78" height="78" as="geometry" />
        </mxCell>
      </root>
    </mxGraphModel>
  </diagram>
</mxfile>
